<?xml version="1.0" encoding="UTF-8" standalone="no"?>
<!-- Generator: Adobe Illustrator 21.1.0, SVG Export Plug-In . SVG Version: 6.00 Build 0)  -->

<svg
   xmlns:dc="http://purl.org/dc/elements/1.1/"
   xmlns:cc="http://creativecommons.org/ns#"
   xmlns:rdf="http://www.w3.org/1999/02/22-rdf-syntax-ns#"
   xmlns:svg="http://www.w3.org/2000/svg"
   xmlns="http://www.w3.org/2000/svg"
   xmlns:sodipodi="http://sodipodi.sourceforge.net/DTD/sodipodi-0.dtd"
   xmlns:inkscape="http://www.inkscape.org/namespaces/inkscape"
   version="1.1"
   id="Calque_1"
   x="0px"
   y="0px"
   viewBox="0 0 1033.7831 336.1036"
   xml:space="preserve"
   sodipodi:docname="tete+texte-ENERFOX.svg"
   width="1033.7831"
   height="336.10361"
   inkscape:version="0.92.4 (5da689c313, 2019-01-14)"><metadata
   id="metadata871"><rdf:RDF><cc:Work
       rdf:about=""><dc:format>image/svg+xml</dc:format><dc:type
         rdf:resource="http://purl.org/dc/dcmitype/StillImage" /><dc:title></dc:title></cc:Work></rdf:RDF></metadata><defs
   id="defs869" /><sodipodi:namedview
   pagecolor="#ffffff"
   bordercolor="#666666"
   borderopacity="1"
   objecttolerance="10"
   gridtolerance="10"
   guidetolerance="10"
   inkscape:pageopacity="0"
   inkscape:pageshadow="2"
   inkscape:window-width="1366"
   inkscape:window-height="705"
   id="namedview867"
   showgrid="false"
   inkscape:zoom="0.38936637"
   inkscape:cx="51.739268"
   inkscape:cy="240.60414"
   inkscape:window-x="-8"
   inkscape:window-y="-8"
   inkscape:window-maximized="1"
   inkscape:current-layer="Calque_1" />
<style
   type="text/css"
   id="style844">
	.st0{fill:#F39000;}
	.st1{fill:#FFFFFF;stroke:#000000;stroke-width:2;stroke-miterlimit:10;}
	.st2{fill:#FFFFFF;}
	.st3{fill:#C96606;}
</style>
<polygon
   class="st0"
   points="247.5,209.9 424.2,217.7 350.8,418.9 99.8,480.3 22.3,240.5 142.4,63.9 "
   id="polygon846"
   transform="matrix(0.69038459,0,0,0.69038459,-11.25327,0.02439325)"
   style="fill:#f39000" />
<path
   class="st1"
   d="M 87.0575,44.139973"
   id="path848"
   inkscape:connector-curvature="0"
   style="fill:#ffffff;stroke:#000000;stroke-width:1.38076913;stroke-miterlimit:10" />
<polygon
   class="st2"
   points="128.7,210.8 99.8,480.3 22.3,240.5 "
   id="polygon850"
   transform="matrix(0.69038459,0,0,0.69038459,-11.25327,0.02439325)"
   style="fill:#ffffff" />
<polygon
   class="st2"
   points="310.2,312.6 101.4,477.5 350.8,418.9 "
   id="polygon852"
   transform="matrix(0.69038459,0,0,0.69038459,-11.25327,0.02439325)"
   style="fill:#ffffff" />
<polygon
   class="st3"
   points="247.5,209.9 142.4,63.9 128.7,210.8 101.2,479.4 "
   id="polygon854"
   transform="matrix(0.69038459,0,0,0.69038459,-11.25327,0.02439325)"
   style="fill:#c96606" />
<polygon
   class="st0"
   points="128.7,210.8 20.2,243.7 142.4,63.9 "
   id="polygon856"
   transform="matrix(0.69038459,0,0,0.69038459,-11.25327,0.02439325)"
   style="fill:#f39000" />
<polygon
   class="st3"
   points="310.2,312.6 348.5,419.5 424.2,217.7 "
   id="polygon858"
   transform="matrix(0.69038459,0,0,0.69038459,-11.25327,0.02439325)"
   style="fill:#c96606" />
<path
   d="M 161.55,141.34612 86.98846,37.719393 0,165.50959 55.16173,336.10362 233.69519,292.40228 286.78576,146.93824 Z M 271.73538,153.63497 63.17019,322.43401 89.81904,54.288623 157.68384,148.59516 Z M 81.94865,58.223813 56.40442,315.66824 8.21558,166.6142 Z M 228.17211,286.05074 72.90462,324.09093 273.59942,161.64343 Z"
   id="path860"
   inkscape:connector-curvature="0"
   style="stroke-width:0.69038457" />
<path
   d="m 92.09731,29.918043 c 9.11307,-15.87884 1.86404,-3.17577 11.39134,-18.8475 4.69462,-7.8013397 13.39346,-12.1507697 20.43539,-10.83902975 10.56288,2.00211005 18.98557,9.18211005 19.46884,18.98556975 0.27616,5.73019 -1.93307,12.21981 -4.76365,17.39769 -8.00846,14.70519 -10.01058,17.46673 -18.8475,31.68866 z"
   id="path862"
   inkscape:connector-curvature="0"
   style="stroke-width:0.69038457" />
<path
   d="m 289.5473,138.4465 c 8.49173,-16.22404 1.65692,-3.31385 9.73442,-19.745 4.00424,-8.14654 3.0377,-17.81192 -1.93307,-23.058837 -7.38712,-7.80135 -18.01904,-11.04616 -26.51077,-6.07539 -4.97077,2.89962 -9.25115,8.21558 -12.08173,13.393457 -8.0775,14.70519 -9.32019,17.81193 -16.50019,33.00039 z"
   id="path864"
   inkscape:connector-curvature="0"
   style="stroke-width:0.69038457" />
<g
   transform="matrix(1.5389908,0,0,1.5389908,323.38492,160.16873)"
   id="g914"><path
     inkscape:connector-curvature="0"
     d="m 37.1,50.3 h -25 V 67.6 H 40 v 8.8 H 0 V 17.6 h 38.5 v 8.8 H 12.1 v 15.2 h 25 z"
     id="path900" /><path
     inkscape:connector-curvature="0"
     d="M 62.6,76.3 V 17.6 h 13.8 l 17.1,25.2 c 4.4,6.5 8.3,13.3 11.3,19.7 h 0.2 c -0.8,-7.8 -1.1,-15.4 -1.1,-24.4 V 17.6 h 11.2 V 76.3 H 102.6 L 85.4,50.5 C 81.2,44.1 76.7,36.8 73.5,30.2 l -0.3,0.1 c 0.5,7.6 0.6,15.3 0.6,25 v 21 z"
     id="path902" /><path
     inkscape:connector-curvature="0"
     d="m 178.2,50.3 h -25 v 17.3 h 27.9 v 8.8 h -40 V 17.6 h 38.5 v 8.8 h -26.4 v 15.2 h 25 z"
     id="path904" /><path
     inkscape:connector-curvature="0"
     d="m 203.8,18.4 c 4.5,-0.7 11.3,-1.2 18.3,-1.2 9.5,0 16,1.4 20.5,4.7 3.6,2.7 5.7,6.8 5.7,11.8 0,7.6 -5.8,12.7 -12,14.7 v 0.3 c 4.7,1.6 7.6,5.7 9.2,11.3 2.1,7.3 3.8,14.1 5.2,16.4 h -12.5 c -1,-1.7 -2.6,-6.5 -4.4,-13.9 -1.9,-7.7 -5,-10.1 -11.9,-10.3 h -6.1 v 24.1 h -12 z m 12,25.9 h 7.2 c 8.2,0 13.3,-3.8 13.3,-9.7 0,-6.4 -5.1,-9.4 -13,-9.4 -3.8,0 -6.3,0.3 -7.5,0.5 z"
     id="path906" /><path
     inkscape:connector-curvature="0"
     class="st0"
     d="M 271.7,17.6 H 310 v 8.8 h -26.2 v 16.2 h 24.4 v 8.8 h -24.4 v 24.9 h -12.1 z"
     id="path908"
     style="fill:#f39000" /><path
     inkscape:connector-curvature="0"
     class="st0"
     d="m 392.6,46.3 c 0,19.7 -13.5,30.9 -31.8,30.9 -18.7,0 -30.5,-12.6 -30.5,-29.9 0,-18 12.8,-30.8 31.5,-30.8 19.3,0.1 30.8,13.1 30.8,29.8 z m -49.5,0.9 c 0,11.9 6.8,21.4 18.4,21.4 11.7,0 18.3,-9.6 18.3,-21.9 0,-11.1 -6.2,-21.5 -18.3,-21.5 -12,0.1 -18.4,9.9 -18.4,22 z"
     id="path910"
     style="fill:#f39000" /><path
     inkscape:connector-curvature="0"
     class="st0"
     d="m 447.5,76.3 -7.2,-11.7 c -2.9,-4.5 -4.7,-7.7 -6.6,-11.1 h -0.3 c -1.6,3.4 -3.3,6.5 -6,11.1 l -6.6,11.7 H 407 l 19.7,-29.7 -18.9,-29 h 13.9 l 7.2,12.1 c 2.2,3.7 3.7,6.5 5.5,9.8 h 0.2 c 1.8,-3.7 3.1,-6.3 5.2,-9.8 l 7.1,-12.1 h 13.9 l -19.4,28.7 20.2,30.1 h -14.1 z"
     id="path912"
     style="fill:#f39000" /></g></svg>